<svg xmlns="http://www.w3.org/2000/svg" viewBox="0 0 40.53 143.59"><defs><style>.cls-1{fill:#231f20;}</style></defs><g id="Layer_2" data-name="Layer 2"><g id="Layer_1-2" data-name="Layer 1"><path class="cls-1" d="M18.3,16.68c-1.31,3.13-3.78,8-6.15,12.68a.66.66,0,0,0,.07.69l8.11,10.42a.39.39,0,0,0,.61,0l9.26-11.8a.67.67,0,0,0,.09-.64,36.67,36.67,0,0,1-2.4-8c-.5-3.46-.7-12.18-1.58-17.71A2.58,2.58,0,0,0,24,.18L22.21,0a2.63,2.63,0,0,0-2.86,2.86C19.7,6.6,20,12.77,18.3,16.68Z"/><path class="cls-1" d="M40.46,76.18c-.72-16.91-1.76-26.89-5.92-37.44l-.86-2.2a.64.64,0,0,0-1.12-.15l-11.65,16a.37.37,0,0,1-.6,0L9,37.86a.65.65,0,0,0-1.1.13c-.35.76-.66,1.45-.9,2C4.88,45.23-.39,55.62,0,70.12.41,83.7,10.1,96.34,12.91,100.66c2.36-9.54-.48-17.06-1.53-22.13C10,71.89,13.13,64.1,13.13,64.1L20.2,78a.38.38,0,0,0,.68,0l6.88-14.39C29.92,78.49,29,85.26,24.41,97.46c-1.6,4.25-3.26,9.7-4.75,15A43.55,43.55,0,0,0,18.1,127.6c.31,4,1.07,8,3.93,16a35.27,35.27,0,0,0,5.44-14.33c1.34-8.76,6.57-17.87,7.79-21.15A78.05,78.05,0,0,0,40.46,76.18Z"/></g></g></svg>